<mxfile host="app.diagrams.net" modified="2023-12-03T14:57:15.013Z" agent="Mozilla/5.0 (Windows NT 10.0; Win64; x64) AppleWebKit/537.36 (KHTML, like Gecko) Chrome/119.0.0.0 Safari/537.36 Edg/119.0.0.0" etag="HJCERXO8KY3ccr9mDNjN" version="22.1.5" type="github">
  <diagram name="第 1 页" id="eIGt9bPIlYOM-FibK0l7">
    <mxGraphModel dx="1026" dy="471" grid="1" gridSize="10" guides="1" tooltips="1" connect="1" arrows="1" fold="1" page="1" pageScale="1" pageWidth="827" pageHeight="1169" math="0" shadow="0">
      <root>
        <mxCell id="0" />
        <mxCell id="1" parent="0" />
        <mxCell id="T5CXyH_D4Jx3Z7DGxqCm-2" value="" style="rounded=1;whiteSpace=wrap;html=1;" vertex="1" parent="1">
          <mxGeometry x="130" y="30" width="560" height="270" as="geometry" />
        </mxCell>
        <mxCell id="T5CXyH_D4Jx3Z7DGxqCm-3" value="&lt;font style=&quot;font-size: 14px;&quot;&gt;&lt;b&gt;组播管理子系统&lt;/b&gt;&lt;/font&gt;" style="text;html=1;strokeColor=none;fillColor=none;align=center;verticalAlign=middle;whiteSpace=wrap;rounded=0;" vertex="1" parent="1">
          <mxGeometry x="360" y="30" width="100" height="30" as="geometry" />
        </mxCell>
        <mxCell id="T5CXyH_D4Jx3Z7DGxqCm-4" value="" style="rounded=1;whiteSpace=wrap;html=1;" vertex="1" parent="1">
          <mxGeometry x="139" y="310" width="550" height="220" as="geometry" />
        </mxCell>
        <mxCell id="T5CXyH_D4Jx3Z7DGxqCm-5" value="&lt;font style=&quot;font-size: 14px;&quot;&gt;&lt;b&gt;状态机子系统&lt;/b&gt;&lt;/font&gt;" style="text;html=1;strokeColor=none;fillColor=none;align=center;verticalAlign=middle;whiteSpace=wrap;rounded=0;" vertex="1" parent="1">
          <mxGeometry x="350" y="310" width="100" height="30" as="geometry" />
        </mxCell>
        <mxCell id="T5CXyH_D4Jx3Z7DGxqCm-6" value="主控模块" style="rounded=1;whiteSpace=wrap;html=1;" vertex="1" parent="1">
          <mxGeometry x="190" y="80" width="120" height="60" as="geometry" />
        </mxCell>
      </root>
    </mxGraphModel>
  </diagram>
</mxfile>
